{"title":"Pathshaala (2010) 900mb DVD Rip Xvid AC3 Multi-Subs [Dare DEvils","uid":5584023,"size":959566745,"categoryP":"video","categoryS":"movies","magnet":"?xt=urn:btih:f132b74c6a6cf084d8484ed0392ba86ed61ae057&amp;dn=Pathshaala+%282010%29+900mb+DVD+Rip+Xvid+AC3+Multi-Subs+%5BDare+DEvils&amp;tr=udp%3A%2F%2Ftracker.openbittorrent.com%3A80&amp;tr=udp%3A%2F%2Fopen.demonii.com%3A1337&amp;tr=udp%3A%2F%2Ftracker.coppersurfer.tk%3A6969&amp;tr=udp%3A%2F%2Fexodus.desync.com%3A6969","seeders":2,"leechers":0,"uploader":"luvwithromio","files":-1,"time":1274641416,"description":"Format                           : AVI\nFormat/Info                      : Audio Video Interleave\nFile size                        : 896 MiB\nDuration                         : 2h 2mn\nOverall bit rate                 : 1 025 Kbps\n\nVideo\nID                               : 0\nFormat                           : MPEG-4 Visual\nFormat profile                   : Advanced Simple@L5\nFormat settings, BVOP            : Yes\nFormat settings, QPel            : No\nFormat settings, GMC             : No warppoints\nFormat settings, Matrix          : Default (H.263)\nCodec ID                         : XVID\nCodec ID/Hint                    : XviD\nDuration                         : 2h 2mn\nBit rate                         : 822 Kbps\nWidth                            : 640 pixels\nHeight                           : 272 pixels\nDisplay aspect ratio             : 2.35:1\nFrame rate                       : 23.976 fps\nResolution                       : 8 bits\nColorimetry                      : 4:2:0\nScan type                        : Progressive\nBits/(Pixel*Frame)               : 0.197\nStream size                      : 719 MiB (80%)\nWriting library                  : XviD 1.1.2 (UTC 2006-11-01)\n\nAudio\nID                               : 1\nFormat                           : AC-3\nFormat/Info                      : Audio Coding 3\nFormat_Settings_ModeExtension    : CM (complete main)\nCodec ID                         : 2000\nDuration                         : 2h 2mn\nBit rate mode                    : Constant\nBit rate                         : 192 Kbps\nChannel(s)                       : 6 channels\nChannel positions                : Front: L C R, Side: L R, LFE\nSampling rate                    : 48.0 KHz\nResolution                       : 16 bits\nStream size                      : 168 MiB (19%)\nAlignment                        : Aligned on interleaves\nInterleave, duration             : 32 ms (0.77 video frame)","torrent":{"xt":"urn:btih:f132b74c6a6cf084d8484ed0392ba86ed61ae057","amp;dn":"Pathshaala+%282010%29+900mb+DVD+Rip+Xvid+AC3+Multi-Subs+%5BDare+DEvils","amp;tr":["udp%3A%2F%2Ftracker.openbittorrent.com%3A80","udp%3A%2F%2Fopen.demonii.com%3A1337","udp%3A%2F%2Ftracker.coppersurfer.tk%3A6969","udp%3A%2F%2Fexodus.desync.com%3A6969"],"infoHash":"f132b74c6a6cf084d8484ed0392ba86ed61ae057","infoHashBuffer":{"type":"Buffer","data":[241,50,183,76,106,108,240,132,216,72,78,208,57,43,168,110,214,26,224,87]},"announce":[],"urlList":[]}}